<svg width="14" height="14" viewBox="0 0 14 14" fill="none" xmlns="http://www.w3.org/2000/svg">
<path d="M12.25 5.13334H1.75M12.25 5.13334V10.0333C12.25 11.0134 12.25 11.5035 12.0593 11.8778C11.8915 12.2071 11.6238 12.4748 11.2945 12.6426C10.9201 12.8333 10.4301 12.8333 9.45 12.8333H4.55C3.56991 12.8333 3.07986 12.8333 2.70552 12.6426C2.37623 12.4748 2.10852 12.2071 1.94074 11.8778C1.75 11.5035 1.75 11.0134 1.75 10.0333V5.13334M12.25 5.13334C12.25 4.15325 12.25 3.66321 12.0593 3.28886C11.8915 2.95958 11.6238 2.69186 11.2945 2.52408C10.9201 2.33334 10.4301 2.33334 9.45 2.33334H4.55C3.56991 2.33334 3.07986 2.33334 2.70552 2.52408C2.37623 2.69186 2.10852 2.95958 1.94074 3.28886C1.75 3.66321 1.75 4.15325 1.75 5.13334M6.125 8.16668L7 7.58334V10.5M6.27083 10.5H7.72917" stroke="black" stroke-linecap="round" stroke-linejoin="round"/>
</svg>
