<svg width="14" height="14" viewBox="0 0 14 14" fill="none" xmlns="http://www.w3.org/2000/svg">
<path d="M12.25 5.13334H1.75M12.25 5.13334V10.0333C12.25 11.0134 12.25 11.5035 12.0593 11.8778C11.8915 12.2071 11.6238 12.4748 11.2945 12.6426C10.9201 12.8333 10.4301 12.8333 9.45 12.8333H4.55C3.56991 12.8333 3.07986 12.8333 2.70552 12.6426C2.37623 12.4748 2.10852 12.2071 1.94074 11.8778C1.75 11.5035 1.75 11.0134 1.75 10.0333V5.13334M12.25 5.13334C12.25 4.15325 12.25 3.66321 12.0593 3.28886C11.8915 2.95958 11.6238 2.69186 11.2945 2.52408C10.9201 2.33334 10.4301 2.33334 9.45 2.33334H4.55C3.56991 2.33334 3.07986 2.33334 2.70552 2.52408C2.37623 2.69186 2.10852 2.95958 1.94074 3.28886C1.75 3.66321 1.75 4.15325 1.75 5.13334M6.9984 7.5056C6.53189 6.97535 5.75394 6.83272 5.16943 7.31827C4.58492 7.80381 4.50263 8.61562 4.96165 9.18988C5.29492 9.60682 6.21791 10.4276 6.69861 10.846C6.80282 10.9367 6.85492 10.982 6.91598 11C6.96887 11.0156 7.02793 11.0156 7.08082 11C7.14188 10.982 7.19398 10.9367 7.29819 10.846C7.7789 10.4276 8.70189 9.60682 9.03516 9.18988C9.49418 8.61562 9.42193 7.79871 8.82737 7.31827C8.23282 6.83783 7.46492 6.97535 6.9984 7.5056Z" stroke="black" stroke-linecap="round" stroke-linejoin="round"/>
</svg>
